<svg width="60" height="47" viewBox="0 0 60 47" fill="none" xmlns="http://www.w3.org/2000/svg">
<path fill-rule="evenodd" clip-rule="evenodd" d="M59.9734 0.207716C59.9963 0.391465 60.0094 0.58474 59.9919 0.768153C59.942 1.28906 59.8721 1.80668 59.8143 2.32632C59.7501 2.90336 59.6076 3.44905 59.4446 3.98951C59.1193 5.06807 58.7848 6.1409 58.3797 7.1742C57.8031 8.64521 57.0803 9.99037 56.3028 11.2902C54.4879 14.3242 52.3446 16.9053 49.9461 19.139C48.7995 20.2066 47.617 21.1992 46.3881 22.0976C45.3483 22.8578 44.2557 23.4715 43.1497 24.0468C41.8601 24.7177 40.5407 25.2661 39.1901 25.6876C37.2781 26.2843 35.3845 26.9718 33.4861 27.6356C33.0263 27.7963 32.5622 27.9286 32.0953 28.0514C31.1616 28.297 30.2491 28.6537 29.3361 29.0041C28.6813 29.2554 28.0282 29.5164 27.3802 29.7955C26.109 30.3429 24.9465 31.1542 23.9223 32.2832C22.2653 34.1099 21.216 36.4074 20.8188 39.189C20.5375 41.1584 20.6512 43.1078 21.0829 45.0259C21.1494 45.3212 21.2582 45.6007 21.3508 45.8856C21.4275 46.1212 21.5106 46.3531 21.587 46.5888C21.6011 46.6322 21.5967 46.6858 21.6022 46.75C21.545 46.75 21.5034 46.761 21.4666 46.7482C21.3069 46.6925 21.1435 46.6462 20.9905 46.567C19.9802 46.0438 19.0575 45.3338 18.2762 44.34C17.2583 43.0455 16.4459 41.5628 15.8721 39.8612C15.3607 38.3446 15.2003 36.7653 15.3027 35.1218C15.3857 33.7885 15.5434 32.4739 15.796 31.1788C16.1609 29.3086 16.7715 27.5762 17.5511 25.9401C18.1976 24.5832 18.9572 23.3458 19.7991 22.1834C21.0114 20.5096 22.3117 18.9708 23.7688 17.6683C26.5481 15.1838 29.4398 12.9589 32.5614 11.2662C34.1186 10.4218 35.6667 9.54541 37.2754 8.87894C38.7834 8.25419 40.293 7.63332 41.8312 7.13896C43.9104 6.47089 45.9874 5.79152 48.0643 5.11089C50.081 4.45006 52.0941 3.77002 54.0727 2.93168C54.3525 2.81315 54.63 2.68568 54.9071 2.55655L55.3226 2.36252C55.5305 2.2658 55.7386 2.17019 55.9478 2.07876C57.1866 1.53746 58.3675 0.816956 59.558 0.125955C59.6148 0.0929984 59.6707 0.0575128 59.7288 0.0288545C59.8664 -0.0390824 59.9489 0.00997381 59.9734 0.207716ZM4.29562 2.34292C4.8726 2.42013 5.45159 2.48689 6.01147 2.68842C8.53946 3.59832 10.8087 5.10996 12.6665 7.57044C13.8941 9.19612 14.8219 11.0794 15.5082 13.1687C15.838 14.1725 16.1249 15.1966 16.293 16.2707C16.4088 17.011 16.4884 17.7573 16.5142 18.5124C16.5501 19.5638 16.5414 20.6143 16.4447 21.6607C16.2967 23.2599 16.0133 24.814 15.5108 26.2922C15.4229 26.5505 15.3308 26.8081 15.2232 27.0531C14.5903 28.4937 13.8941 29.8799 13.0881 31.1681C12.9251 31.4287 12.7496 31.6805 12.5585 31.9055C12.1269 32.4136 12.0065 32.3846 11.6312 31.881C11.466 31.6593 11.3097 31.4207 11.1764 31.1657C10.845 30.531 10.5148 29.8939 10.21 29.2373C9.64213 28.0144 9.14293 26.7437 8.70849 25.4303C8.35844 24.3719 8.14498 23.2644 7.99667 22.1334C7.83962 20.936 7.77848 19.7269 7.74163 18.5145C7.71048 17.4914 7.67732 16.468 7.62214 15.4467C7.56716 14.4294 7.34269 13.4632 7.02703 12.533C6.52556 11.0557 5.87922 9.7016 5.02803 8.5165C4.26971 7.46061 3.47195 6.46305 2.57329 5.61021C2.32291 5.3726 2.05479 5.16652 1.79431 4.94703C1.75092 4.91045 1.70144 4.88508 1.66077 4.84445C1.22071 4.40503 0.74148 4.04738 0.260771 3.69276L0.108962 3.58079C0.0914762 3.56789 0.0773577 3.54741 0.0616849 3.53038C-0.0413543 3.07674 -0.0401238 3.07986 0.260186 2.87833C0.595727 2.65302 0.956979 2.53434 1.32477 2.4557C2.31054 2.24489 3.30072 2.20983 4.29562 2.34292Z" fill="#5FA544"/>
</svg>
