<svg width="183" height="48" viewBox="0 0 183 48" fill="none" xmlns="http://www.w3.org/2000/svg">
<path style="fill: #fff;" fill-rule="evenodd" clip-rule="evenodd" d="M122.805 23.6991C122.843 23.6992 122.88 23.7239 122.942 23.7457V47.5556C122.942 47.7038 122.947 47.8519 122.95 48H118.404C118.406 47.8653 118.408 47.7304 118.408 47.5956V23.744C118.469 23.7232 118.507 23.699 118.545 23.699C119.965 23.6971 121.385 23.6971 122.805 23.6991ZM108.907 30.1183C109.791 30.2691 110.646 30.5131 111.442 30.9345C112.428 31.4563 113.189 32.1955 113.65 33.2215C113.906 33.7928 114.059 34.3914 114.105 35.0142C114.133 35.4037 114.149 35.795 114.149 36.1855C114.152 39.8929 114.151 43.6003 114.153 47.3076C114.153 47.3914 114.159 47.4751 114.167 47.5588L114.178 47.6843C114.18 47.7053 114.182 47.7262 114.183 47.7471H111.424C111.45 47.6641 111.381 47.6281 111.337 47.584C110.909 47.1564 110.479 46.7298 110.048 46.3048C110.003 46.2608 109.947 46.2283 109.905 46.1968C108.137 47.1954 107.463 47.4551 106.071 47.6773C105.991 47.6761 105.91 47.6749 105.83 47.6735C105.791 47.6737 105.752 47.6718 105.713 47.6697L105.666 47.6671C105.524 47.6596 105.383 47.6581 105.254 47.7471H104.118C103.974 47.6603 103.82 47.6588 103.666 47.6667L103.614 47.6696C103.563 47.6726 103.511 47.6757 103.46 47.6761L103.062 47.6676C102.601 47.5627 102.134 47.4797 101.682 47.3459C101.335 47.243 100.994 47.1001 100.672 46.9329C99.6031 46.3772 98.8758 45.5201 98.5113 44.3733C98.1409 43.2066 98.0774 42.0193 98.3472 40.8221C98.595 39.7202 99.1989 38.8546 100.131 38.2148C100.83 37.7338 101.613 37.4404 102.432 37.2432C103.263 37.0434 104.107 36.9338 104.961 36.9059C105.42 36.891 105.88 36.8873 106.34 36.8888C107.385 36.8924 108.418 37.0106 109.446 37.1868C109.484 37.1936 109.525 37.1959 109.559 37.1997C109.652 37.1437 109.628 37.0572 109.628 36.9827C109.631 36.6052 109.638 36.2274 109.626 35.8504C109.618 35.6362 109.595 35.4186 109.545 35.2107C109.422 34.7033 109.128 34.3114 108.685 34.0309C108.327 33.8031 107.928 33.6789 107.516 33.5932C107.129 33.5132 106.738 33.4914 106.345 33.4866C105.166 33.4719 103.995 33.5612 102.828 33.7241C101.836 33.8626 100.856 34.0538 99.878 34.2675C99.8145 34.2815 99.7494 34.2907 99.6843 34.3023C99.6607 34.1512 99.6466 33.4032 99.6437 32.6289L99.6434 32.5339L99.6431 32.3916L99.6431 32.2971C99.6433 31.6055 99.6528 30.9584 99.6725 30.7691C99.9964 30.642 100.346 30.595 100.688 30.5228C101.906 30.2659 103.135 30.0731 104.375 29.9783C105.89 29.8628 107.403 29.8617 108.907 30.1183ZM164.246 29.9578C165.071 30.0279 165.88 30.1789 166.663 30.4542C168.598 31.1357 169.902 32.4499 170.587 34.3734C170.86 35.1384 171.012 35.9305 171.094 36.7381C171.163 37.4239 171.181 38.1104 171.155 38.7978C171.136 39.3219 171.099 39.8458 171.004 40.3594C170.854 40.4437 170.702 40.4066 170.557 40.4067C166.904 40.4092 163.253 40.4084 159.6 40.4094C159.454 40.4094 159.305 40.3922 159.153 40.4355C159.083 40.6866 159.134 40.9278 159.174 41.1612C159.335 42.1196 159.838 42.8557 160.675 43.3588C161.25 43.7044 161.882 43.898 162.536 44.0178C163.162 44.1324 163.796 44.1852 164.432 44.191C166.25 44.2077 168.052 44.049 169.84 43.7266C169.915 43.713 169.994 43.7168 170.07 43.7125C170.093 43.8754 170.105 44.5491 170.107 45.2683L170.107 45.3455L170.107 45.4411V45.5368C170.107 45.5628 170.107 45.5889 170.107 45.6149L170.107 45.6927C170.105 46.4176 170.093 47.0962 170.07 47.2523C169.249 47.4487 168.41 47.5443 167.568 47.6295L167.316 47.6548C167.274 47.659 167.232 47.6632 167.189 47.6674C166.924 47.6715 166.657 47.6756 166.392 47.6798C166.082 47.6787 165.772 47.6746 165.462 47.6797C165.434 47.6801 165.406 47.6959 165.378 47.7134L165.35 47.7311C165.341 47.7369 165.331 47.7424 165.322 47.7471H163.374C163.053 47.6711 162.728 47.6471 162.399 47.6677C161.457 47.5535 160.532 47.3718 159.638 47.0463C157.238 46.173 155.711 44.5003 155.018 42.0594C154.818 41.3568 154.693 40.6395 154.642 39.9131C154.531 38.3187 154.58 36.7333 155.012 35.1807C155.109 34.8312 155.223 34.4837 155.363 34.149C156.129 32.3124 157.47 31.0829 159.355 30.4398C160.127 30.1766 160.923 30.0297 161.734 29.9596C162.57 29.8873 163.409 29.8865 164.246 29.9578ZM76.7303 29.9403C76.7235 30.06 76.6661 30.164 76.622 30.2724C75.5486 32.9034 74.4768 35.5351 73.4032 38.1658C72.1516 41.2331 70.8981 44.2996 69.6478 47.3674C69.5984 47.4887 69.5743 47.6203 69.5386 47.7471H65.1552C65.1243 47.6448 65.0997 47.5402 65.0616 47.4407C62.8889 41.7698 60.715 36.0994 58.5413 30.4288C58.484 30.2792 58.4287 30.1286 58.3613 29.9484C58.4394 29.9304 58.499 29.9047 58.5588 29.9047C60.0328 29.9032 61.5068 29.9043 62.9809 29.9055C63.0075 29.9055 63.0342 29.9125 63.068 29.9173C63.1965 30.0094 63.2078 30.1672 63.255 30.3022C64.1616 32.8947 65.0647 35.4887 65.9684 38.0824C66.4114 39.3537 66.8536 40.6255 67.2976 41.8965C67.3446 42.031 67.4014 42.1622 67.4784 42.3581C68.9971 38.1721 70.4932 34.0482 71.9844 29.938C72.1644 29.9151 73.1474 29.9035 74.1746 29.9026L74.3716 29.9026C75.4671 29.9032 76.5578 29.916 76.7303 29.9403ZM83.2536 29.9048C83.2925 29.9048 83.3315 29.9182 83.3998 29.9306C83.4087 30.003 83.4209 30.0778 83.426 30.1532C83.4304 30.2203 83.4269 30.288 83.4269 30.3554C83.4269 36.0314 83.427 41.7074 83.4266 47.3834C83.4266 47.5046 83.4217 47.6259 83.4191 47.7471H78.8734C78.8814 47.5998 78.8963 47.4525 78.8964 47.3053L78.8974 38.8722L78.8974 29.946C78.987 29.9283 79.0504 29.9049 79.1139 29.9048C80.4938 29.9029 81.8737 29.9036 83.2536 29.9048ZM90.7823 27.0495C91.036 27.9696 91.2187 28.9187 91.4622 29.8447C91.5942 29.9368 91.7337 29.9012 91.8648 29.9015C93.0826 29.9041 94.2996 29.9027 95.5166 29.9035C95.6502 29.9036 95.7839 29.9104 95.9327 29.9145C95.9496 29.9764 95.975 30.025 95.975 30.0734C95.9775 31.1517 95.9767 32.23 95.9758 33.3083C95.9758 33.3469 95.9623 33.3856 95.9555 33.4209C95.8719 33.4974 95.7766 33.4917 95.6838 33.4853L95.6512 33.4831C95.6349 33.4822 95.6188 33.4815 95.6029 33.4816C94.5347 33.4846 93.4658 33.4829 92.3976 33.484C92.2648 33.4841 92.1321 33.4919 91.9841 33.4968C91.9739 33.599 91.9595 33.6768 91.9595 33.7545C91.9587 36.4233 91.9553 39.0921 91.9655 41.7609C91.9671 42.0808 92.0204 42.4056 92.0915 42.719C92.2606 43.4673 92.757 44.1119 93.8895 44.1813C94.3343 44.2084 94.7825 44.1894 95.2282 44.191C95.2855 44.1912 95.3428 44.1913 95.3998 44.1913L95.5695 44.1913C95.6815 44.1913 95.7911 44.1911 95.8955 44.1911C96.008 44.2978 95.9767 44.4113 95.9767 44.515C95.9792 45.4584 95.9775 46.4019 95.9792 47.3455C95.9792 47.4794 95.9936 47.6132 96.0012 47.7471H91.2931C91.1121 47.6611 90.9201 47.6502 90.7248 47.6657C90.5024 47.6087 90.2757 47.5651 90.0584 47.4926C89.0266 47.1476 88.2917 46.4784 87.8722 45.472C87.6515 44.9447 87.5288 44.3939 87.4815 43.8277C87.4527 43.479 87.4392 43.1278 87.4392 42.7777C87.4366 37.6692 87.4375 32.5607 87.4383 27.4522C87.4383 27.3195 87.4189 27.1837 87.4662 27.0576C87.6298 27.033 88.4234 27.0194 89.2017 27.0188L89.3387 27.0189C89.9763 27.0197 90.5777 27.0295 90.7823 27.0495ZM177.642 27.0495C177.895 27.9691 178.08 28.9177 178.328 29.8664C178.406 29.8787 178.484 29.9013 178.562 29.9015C179.9 29.9035 181.238 29.9033 182.577 29.9015C182.643 29.9013 182.708 29.8806 182.774 29.8694V33.5095C182.722 33.5009 182.669 33.4844 182.616 33.4843C181.426 33.4829 180.237 33.4828 179.047 33.4843C178.984 33.4844 178.92 33.5014 178.832 33.5135C178.827 33.6588 178.819 33.7906 178.819 33.9224C178.818 36.4546 178.818 38.9868 178.818 41.5191C178.818 41.6133 178.815 41.7079 178.821 41.8018C178.847 42.219 178.882 42.6346 179.044 43.0276C179.28 43.6045 179.694 43.9792 180.309 44.1119C180.518 44.1573 180.735 44.1841 180.95 44.1873C181.558 44.1963 182.166 44.1888 182.774 44.1878V47.7471H178.229L177.58 47.6653C177.519 47.6483 177.459 47.632 177.398 47.616L177.215 47.5681C177.062 47.5278 176.91 47.4854 176.763 47.432C175.824 47.0921 175.163 46.4502 174.761 45.5428C174.508 44.9704 174.379 44.3654 174.334 43.7436C174.312 43.4347 174.304 43.1243 174.304 42.8145C174.303 37.6941 174.303 32.5736 174.304 27.453C174.304 27.3216 174.311 27.1903 174.315 27.0648C174.489 27.037 175.247 27.0207 176.005 27.0185L176.098 27.0182C176.114 27.0182 176.129 27.0182 176.145 27.0182L176.237 27.0182C176.851 27.0187 177.425 27.0287 177.642 27.0495ZM138.245 29.6532C138.272 29.6533 138.298 29.6621 138.355 29.672C138.383 29.7572 138.424 29.8538 138.446 29.9547C138.589 30.6122 138.728 31.2708 138.87 31.9285C138.889 32.0186 138.923 32.1055 138.959 32.2233C139.057 32.1389 139.14 32.0739 139.216 32.0023C139.66 31.5851 140.132 31.2042 140.645 30.8756C142.056 29.9739 143.598 29.5795 145.269 29.6652C145.878 29.6964 146.48 29.7615 147.073 29.9113C149.078 30.4185 150.327 31.6844 150.869 33.66C151.095 34.484 151.177 35.3278 151.182 36.1786C151.188 37.4854 151.183 38.7923 151.183 40.0991C151.183 42.4163 151.183 44.7336 151.184 47.0509C151.184 47.1987 151.194 47.3464 151.199 47.4942H146.653C146.654 45.8636 146.655 44.2328 146.655 42.602C146.655 40.5131 146.654 38.4242 146.656 36.3352C146.657 35.9835 146.64 35.6344 146.564 35.2906C146.342 34.2885 145.747 33.6459 144.731 33.4071C144.347 33.3166 143.957 33.2873 143.563 33.2986C141.961 33.3453 140.629 34.0342 139.411 35.0439V35.4876C139.411 39.3556 139.411 43.2236 139.412 47.0915C139.412 47.2258 139.423 47.3601 139.428 47.4942H134.882C134.881 45.5273 134.88 43.5603 134.88 41.5934V29.6968C134.957 29.679 135.02 29.6527 135.082 29.6527C136.136 29.6507 137.19 29.652 138.245 29.6532ZM105.1 39.986C104.614 40.0355 104.143 40.1471 103.708 40.3831C103.19 40.6647 102.862 41.0919 102.757 41.6699C102.687 42.056 102.698 42.448 102.78 42.8343C102.945 43.6169 103.414 44.1304 104.182 44.3537C104.464 44.4358 104.761 44.4916 105.055 44.5103C106.635 44.6104 108.072 44.1827 109.38 43.3053C109.457 43.2537 109.529 43.1934 109.59 43.1447L109.616 43.1246V40.3016C109.516 40.2747 109.428 40.2407 109.336 40.2278C108.816 40.154 108.295 40.065 107.772 40.0196C106.883 39.9424 105.992 39.8954 105.1 39.986ZM162.02 33.5243C160.828 33.741 159.971 34.3914 159.504 35.5183C159.302 36.0066 159.181 36.5174 159.141 37.045C159.136 37.1185 159.152 37.1936 159.158 37.2627C159.372 37.2831 160.642 37.2933 162.086 37.2944L162.226 37.2945C162.241 37.2945 162.257 37.2945 162.273 37.2945L162.486 37.2945L162.603 37.2944C162.643 37.2944 162.682 37.2943 162.721 37.2943L163.017 37.2939C163.096 37.2937 163.174 37.2936 163.253 37.2934L163.371 37.2931C165.037 37.2884 166.596 37.2725 166.762 37.2469C166.777 36.7656 166.726 36.3116 166.62 35.8652C166.332 34.6476 165.573 33.8873 164.355 33.5922C163.582 33.4054 162.801 33.3823 162.02 33.5243ZM83.2057 23.4401C83.2708 23.4402 83.3358 23.4582 83.4271 23.4717L83.4271 24.8028C83.4271 25.4665 83.4269 26.1282 83.4262 26.7898C83.4261 26.854 83.4135 26.9183 83.4081 26.9702C83.3644 26.9924 83.3413 27.0146 83.3181 27.0147C81.913 27.0184 80.5079 27.0204 79.1028 27.0214C79.051 27.0215 78.9993 27.0083 78.9283 26.9988C78.8875 26.7448 78.89 26.4926 78.895 26.2417L78.8977 26.105C78.8994 26.0139 78.9004 25.923 78.8987 25.8323C78.8915 25.4419 78.8972 25.0513 78.8972 24.6608V23.4815C78.9843 23.4642 79.048 23.4407 79.1117 23.4406C80.4764 23.4385 81.841 23.4385 83.2057 23.4401Z" fill="#222C4F"/>
<path fill-rule="evenodd" clip-rule="evenodd" d="M78.3161 0.207716C78.346 0.391465 78.3632 0.58474 78.3402 0.768153C78.2751 1.28906 78.1839 1.80668 78.1083 2.32632C78.0245 2.90336 77.8384 3.44905 77.6256 3.98951C77.2007 5.06807 76.7639 6.1409 76.235 7.1742C75.4821 8.64521 74.5382 9.99037 73.5228 11.2902C71.1529 14.3242 68.3541 16.9053 65.2219 19.139C63.7247 20.2066 62.1806 21.1992 60.5758 22.0976C59.2179 22.8578 57.7912 23.4715 56.347 24.0468C54.6629 24.7177 52.94 25.2661 51.1763 25.6876C48.6795 26.2843 46.2068 26.9718 43.7278 27.6356C43.1272 27.7963 42.5213 27.9286 41.9116 28.0514C40.6923 28.297 39.5006 28.6537 38.3085 29.0041C37.4534 29.2554 36.6006 29.5164 35.7543 29.7955C34.0943 30.3429 32.5763 31.1542 31.2389 32.2832C29.0751 34.1099 27.7049 36.4074 27.1862 39.189C26.8188 41.1584 26.9673 43.1078 27.5311 45.0259C27.6179 45.3212 27.76 45.6007 27.8809 45.8856C27.981 46.1212 28.0896 46.3531 28.1894 46.5888C28.2077 46.6322 28.202 46.6858 28.2092 46.75C28.1345 46.75 28.0801 46.761 28.0321 46.7482C27.8235 46.6925 27.6101 46.6462 27.4104 46.567C26.0911 46.0438 24.8862 45.3338 23.8659 44.34C22.5367 43.0455 21.4758 41.5628 20.7265 39.8612C20.0587 38.3446 19.8492 36.7653 19.983 35.1218C20.0914 33.7885 20.2973 32.4739 20.6272 31.1788C21.1037 29.3086 21.901 27.5762 22.9191 25.9401C23.7633 24.5832 24.7552 23.3458 25.8546 22.1834C27.4377 20.5096 29.1356 18.9708 31.0384 17.6683C34.6678 15.1838 38.4438 12.9589 42.5203 11.2662C44.5537 10.4218 46.5752 9.54541 48.676 8.87894C50.6452 8.25419 52.6165 7.63332 54.6251 7.13896C57.3403 6.47089 60.0526 5.79152 62.7646 5.11089C65.3982 4.45006 68.0269 3.77002 70.6107 2.93168C70.9761 2.81315 71.3384 2.68568 71.7003 2.55655L72.2429 2.36252C72.5143 2.2658 72.7861 2.17019 73.0593 2.07876C74.677 1.53746 76.219 0.816956 77.7737 0.125955C77.8478 0.0929984 77.9208 0.0575128 77.9966 0.0288545C78.1764 -0.0390824 78.2841 0.00997381 78.3161 0.207716ZM5.60942 2.34292C6.36287 2.42013 7.11894 2.48689 7.85006 2.68842C11.1512 3.59832 14.1144 5.10996 16.5406 7.57044C18.1435 9.19612 19.3551 11.0794 20.2514 13.1687C20.682 14.1725 21.0567 15.1966 21.2761 16.2707C21.4274 17.011 21.5314 17.7573 21.565 18.5124C21.6119 19.5638 21.6006 20.6143 21.4742 21.6607C21.281 23.2599 20.9109 24.814 20.2547 26.2922C20.14 26.5505 20.0197 26.8081 19.8792 27.0531C19.0528 28.4937 18.1435 29.8799 17.091 31.1681C16.8782 31.4287 16.6491 31.6805 16.3995 31.9055C15.8358 32.4136 15.6787 32.3846 15.1885 31.881C14.9728 31.6593 14.7687 31.4207 14.5947 31.1657C14.1619 30.531 13.7307 29.8939 13.3327 29.2373C12.5911 28.0144 11.9393 26.7437 11.372 25.4303C10.9149 24.3719 10.6361 23.2644 10.4424 22.1334C10.2373 20.936 10.1575 19.7269 10.1094 18.5145C10.0687 17.4914 10.0254 16.468 9.95336 15.4467C9.88155 14.4294 9.58843 13.4632 9.17623 12.533C8.52139 11.0557 7.67736 9.7016 6.56584 8.5165C5.57559 7.46061 4.53384 6.46305 3.36032 5.61021C3.03337 5.3726 2.68324 5.16652 2.3431 4.94703C2.28643 4.91045 2.22182 4.88508 2.16871 4.84445C1.59406 4.40503 0.96826 4.04738 0.340527 3.69276L0.142288 3.58079C0.119454 3.56789 0.101017 3.54741 0.0805511 3.53038C-0.0540024 3.07674 -0.0523955 3.07986 0.339763 2.87833C0.777929 2.65302 1.24967 2.53434 1.72995 2.4557C3.01722 2.24489 4.31023 2.20983 5.60942 2.34292Z" fill="#5FA544"/>
</svg>
