<svg width="88" height="88" viewBox="0 0 88 88" fill="none" xmlns="http://www.w3.org/2000/svg">
<circle cx="44" cy="44" r="44" fill="#EEEEEE"/>
<mask id="mask0_493_12080" style="mask-type:alpha" maskUnits="userSpaceOnUse" x="0" y="0" width="88" height="88">
<circle cx="44" cy="44" r="44" fill="#EEEEEE"/>
</mask>
<g mask="url(#mask0_493_12080)">
<path fill-rule="evenodd" clip-rule="evenodd" d="M28 44.4405C28 35.5128 35.1774 28.2498 44 28.2498C52.8226 28.2498 60 35.5128 60 44.4405C60 53.3683 52.8226 60.6313 44 60.6313C35.1774 60.6313 28 53.3683 28 44.4405ZM53.313 61.1808C50.558 62.7563 47.384 63.6671 44 63.6671C40.616 63.6671 37.442 62.7563 34.687 61.1808C23.252 65.1161 15 76.0803 15 88.9652C15 89.5238 15.448 89.9771 16 89.9771H19V103.132H69V89.9771H72C72.552 89.9771 73 89.5238 73 88.9652C73 76.0803 64.748 65.1161 53.313 61.1808Z" fill="#BDBDBD"/>
</g>
</svg>
